<svg xmlns="http://www.w3.org/2000/svg" version="1.1" xmlns:xlink="http://www.w3.org/1999/xlink" xmlns:svgjs="http://svgjs.dev/svgjs" width="1000" height="1000" viewBox="0 0 1000 1000"><rect width="1000" height="1000" fill="#ffffff"></rect><g transform="matrix(0.7,0,0,0.7,149.65000000000003,149.65000000000003)"><svg viewBox="0 0 280 280" data-background-color="#a437db" preserveAspectRatio="xMidYMid meet" height="1000" width="1000" xmlns="http://www.w3.org/2000/svg" xmlns:xlink="http://www.w3.org/1999/xlink"><g id="tight-bounds" transform="matrix(1,0,0,1,0.13999999999998636,0.13999999999998636)"><svg viewBox="0 0 279.72 279.72" height="279.72" width="279.72"><g><svg viewBox="0 0 279.72 279.72" height="279.72" width="279.72"><g><svg viewBox="0 0 279.72 279.72" height="279.72" width="279.72"><g id="textblocktransform"><svg viewBox="0 0 279.72 279.72" height="279.72" width="279.72" id="textblock"><g><svg viewBox="0 0 279.72 279.72" height="279.72" width="279.72"><g transform="matrix(1,0,0,1,73.92936372216631,106.16559425170746)"><svg viewBox="0 0 131.8612725556674 67.38881149658509" height="67.38881149658509" width="131.8612725556674"><g><svg xmlns="http://www.w3.org/2000/svg" xmlns:xlink="http://www.w3.org/1999/xlink" version="1.1" x="0" y="0" viewBox="93.60005187988281 186.29998779296875 379.79998779296875 194.0999755859375" style="enable-background:new 0 0 566.9 566.9;" xml:space="preserve" height="67.38881149658509" width="131.8612725556674" class="icon-o-0" data-fill-palette-color="accent" id="o-0"><path d="M395.9 263.1c-19.6 0.8-34.4 1.8-45.6 2.9l17.8-25.8c7.4-5.4 12.2-14.2 12.2-24.1 0-16.5-13.3-29.8-29.8-29.8-16.5 0-29.8 13.3-29.8 29.8 0 9.9 4.8 18.6 12.2 24l16.4 26c-30.4 3.2-33.7 7.7-33.8 11.8 0 2.1 0.7 3.9 2.2 5.4 5.1 5.1 18.3 5 39.4 4.4 22.4-0.6 50.2-1.3 59.4 8.9-1.7 1.5-8.4 4.6-32.9 9.6-21.2 4.3-51.9 9.5-90.9 16-32.7 5.5-69.8 11.7-113.2 19.3-15.1 2.7-27.2 5.1-36.8 7.2l29.1-42.3c12.2-9 20.2-23.4 20.2-39.8 0-27.2-22-49.2-49.2-49.2-27.2 0-49.2 22-49.2 49.2 0 16.3 7.9 30.8 20.1 39.7l27 42.8c-32.6 7.5-35.8 12.2-35.5 16.3 0.4 7.5 16.8 10.8 70 14 6.4 0.4 13 0.8 14.1 1l1.6-5.8c-1.4-0.4-4.9-0.6-15.3-1.3-11.2-0.7-26.6-1.6-39.8-3.2-17.8-2.1-22.8-4.3-24.2-5.3 2.2-2.1 13.3-7.9 69.1-17.7 43.4-7.7 80.5-13.9 113.2-19.3 97.6-16.3 125.8-21.4 128.8-29.8 0.4-1.1 0.7-3.1-1.2-5.3-10.7-12.7-39.2-12-64.4-11.3-14.7 0.4-31.4 0.8-35-2.7-0.2-0.2-0.4-0.5-0.4-0.7 1.3-1.4 10.7-6.9 77.9-9.3 37-1.3 73.5-1.1 73.8-1.1l0-6C473 261.9 434.2 261.6 395.9 263.1zM339.8 224.2c0-5.9 4.8-10.7 10.7-10.7 5.9 0 10.7 4.8 10.7 10.7 0 5.9-4.8 10.7-10.7 10.7C344.6 234.9 339.8 230.1 339.8 224.2zM125.1 280.1c0-9.8 7.9-17.7 17.7-17.7s17.7 7.9 17.7 17.7-7.9 17.7-17.7 17.7S125.1 289.8 125.1 280.1z" fill="#000000" data-fill-palette-color="accent"></path></svg></g></svg></g><g><path d="M31.776 103.795l-1.989 4.749-28.682-4.76 1.801-4.302 13.674 2.6 9.444 1.805 0.047-0.112-7.803-5.724-11.259-8.367 1.973-4.712 13.846 2.189 9.5 1.565 0.047-0.112-7.844-5.521-11.415-7.994 1.739-4.152 23.403 17.367-1.989 4.75-14.893-2.332-8.739-1.367-0.031 0.074 7.094 5.296z" fill="#000000" data-fill-palette-color="primary"></path><path d="M64.477 54.788l-3.264 3.5-7.346-3.351-7.216 7.739 3.917 7.028-3.18 3.411-14.113-26.355 3.926-4.21zM50.216 53.082l-11.896-5.546-0.138 0.148 6.343 11.502z" fill="#000000" data-fill-palette-color="primary"></path><path d="M84.127 42.06l-3.96 2.306-5.611-9.633-17.039-9.919 4.52-2.633 12.296 7.425 0.105-0.061-0.417-14.344 4.345-2.53 0.11 19.686z" fill="#000000" data-fill-palette-color="primary"></path><path d="M135.291 28.306l-5.149 0.002-6.7-28.292 4.663-0.002 2.89 13.615 1.987 9.408 0.121 0 2.262-9.41 3.362-13.618 5.109-0.002 3.335 13.615 2.23 9.367 0.121-0.001 2.059-9.368 2.958-13.618 4.502-0.002-6.967 28.298-5.15 0.003-3.608-14.637-2.118-8.588-0.081 0-2.14 8.59z" fill="#000000" data-fill-palette-color="primary"></path><path d="M189.994 37.78l-17.135-5.887 9.193-26.76 17.135 5.887-1.318 3.837-12.811-4.401-2.553 7.433 11.624 3.994-1.318 3.837-11.625-3.994-2.685 7.817 12.811 4.401z" fill="#000000" data-fill-palette-color="primary"></path><path d="M232.522 72.402l3.162-2.914-0.11-0.119c-1.218 0.719-2.602 0.903-4.153 0.553-1.556-0.355-3.065-1.326-4.527-2.912v0c-1.138-1.235-1.958-2.593-2.461-4.074-0.507-1.486-0.659-3.029-0.455-4.63 0.199-1.596 0.771-3.224 1.717-4.884 0.947-1.67 2.295-3.312 4.046-4.924v0c1.726-1.59 3.464-2.784 5.215-3.581 1.741-0.797 3.436-1.222 5.085-1.274 1.644-0.047 3.213 0.272 4.708 0.958 1.49 0.681 2.868 1.709 4.134 3.083v0c1.718 1.865 2.762 3.824 3.131 5.877 0.365 2.048 0.142 4.11-0.668 6.187v0l-4.136-1.265c0.607-1.292 0.826-2.637 0.658-4.032-0.158-1.395-0.822-2.728-1.991-3.998v0c-1.522-1.652-3.272-2.492-5.252-2.52-1.979-0.038-3.933 0.832-5.863 2.61v0l-3.4 3.133c-1.929 1.778-2.956 3.654-3.079 5.63-0.128 1.971 0.568 3.782 2.09 5.433v0c0.603 0.655 1.263 1.202 1.98 1.642 0.717 0.44 1.447 0.735 2.191 0.884 0.739 0.145 1.474 0.127 2.207-0.053 0.733-0.18 1.429-0.574 2.089-1.182v0l1.606-1.48-3.955-4.293 2.894-2.666 6.951 7.543-11.092 10.221z" fill="#000000" data-fill-palette-color="primary"></path><path d="M247.255 99.65v0c-0.736-1.687-1.113-3.344-1.131-4.97-0.02-1.632 0.322-3.183 1.026-4.653 0.699-1.468 1.767-2.831 3.204-4.092 1.44-1.269 3.252-2.379 5.434-3.331v0c2.176-0.949 4.219-1.521 6.128-1.714 1.901-0.197 3.63-0.054 5.187 0.429 1.551 0.486 2.918 1.291 4.101 2.416 1.18 1.119 2.138 2.522 2.874 4.21v0c0.734 1.681 1.111 3.338 1.132 4.97 0.018 1.626-0.323 3.172-1.022 4.64-0.702 1.476-1.772 2.845-3.209 4.104-1.443 1.263-3.253 2.369-5.428 3.318v0c-2.182 0.952-4.227 1.528-6.134 1.727-1.901 0.197-3.628 0.049-5.182-0.442-1.557-0.483-2.926-1.284-4.106-2.403-1.183-1.125-2.141-2.528-2.874-4.209zM251.01 98.011v0c0.432 0.989 1.001 1.822 1.709 2.5 0.708 0.677 1.517 1.167 2.428 1.467 0.909 0.295 1.906 0.397 2.992 0.306 1.08-0.089 2.213-0.392 3.4-0.91v0l4.089-1.784c1.187-0.518 2.183-1.144 2.989-1.878 0.799-0.731 1.4-1.531 1.801-2.397 0.399-0.873 0.591-1.799 0.576-2.779-0.009-0.982-0.229-1.968-0.661-2.957v0c-0.445-1.02-1.022-1.861-1.731-2.523-0.702-0.665-1.508-1.145-2.416-1.44-0.909-0.295-1.904-0.401-2.987-0.319-1.086 0.091-2.222 0.396-3.409 0.914v0l-4.089 1.784c-1.187 0.518-2.18 1.143-2.979 1.874-0.803 0.74-1.405 1.544-1.807 2.411-0.402 0.867-0.598 1.784-0.588 2.751 0.01 0.967 0.237 1.96 0.683 2.98z" fill="#000000" data-fill-palette-color="primary"></path><path d="M12.499 187.723v0c-0.492-1.528-0.633-2.914-0.424-4.157 0.214-1.252 0.666-2.411 1.358-3.476v0l2.551 1.421c-0.577 0.894-0.939 1.794-1.087 2.699-0.15 0.898-0.066 1.842 0.252 2.831v0c0.374 1.162 0.916 1.955 1.626 2.378 0.71 0.423 1.508 0.492 2.394 0.207v0c0.713-0.229 1.21-0.62 1.493-1.172 0.285-0.545 0.36-1.38 0.225-2.505v0l-0.232-1.711c-0.236-1.879-0.083-3.395 0.46-4.548 0.549-1.155 1.556-1.967 3.02-2.438v0c0.796-0.256 1.567-0.338 2.312-0.245 0.754 0.097 1.44 0.348 2.059 0.751 0.619 0.403 1.176 0.957 1.672 1.662 0.496 0.705 0.9 1.542 1.212 2.511v0c0.442 1.374 0.585 2.642 0.427 3.805-0.153 1.154-0.567 2.234-1.243 3.237v0l-2.48-1.465c0.453-0.663 0.752-1.393 0.9-2.192 0.149-0.792 0.061-1.692-0.263-2.699v0c-0.337-1.046-0.806-1.788-1.407-2.226-0.601-0.437-1.3-0.528-2.096-0.271v0c-0.764 0.246-1.257 0.663-1.478 1.252-0.228 0.591-0.276 1.41-0.144 2.458v0l0.183 1.726c0.234 1.937 0.072 3.459-0.486 4.567-0.564 1.11-1.575 1.899-3.031 2.368v0c-0.854 0.275-1.675 0.376-2.464 0.304-0.788-0.072-1.524-0.31-2.206-0.714-0.674-0.399-1.278-0.967-1.812-1.702-0.526-0.731-0.956-1.616-1.291-2.656z" fill="#000000" data-fill-palette-color="primary"></path><path d="M22.997 211.083l7.449-3.697-3.845-7.748-7.449 3.697-1.371-2.764 17.108-8.49 1.372 2.764-7.204 3.575 3.845 7.748 7.204-3.575 1.376 2.773-17.109 8.49z" fill="#000000" data-fill-palette-color="primary"></path><path d="M38.01 232.765l-1.925-2.59 3.123-4.464-4.261-5.732-5.144 1.744-1.877-2.525 19.209-6.173 2.317 3.117zM40.884 223.507l5.128-7.228-0.078-0.105-8.411 2.81z" fill="#000000" data-fill-palette-color="primary"></path><path d="M49.873 233.991l-5.444 5.472-2.187-2.176 13.47-13.541 5.838 5.808c1.214 1.208 1.807 2.525 1.777 3.951-0.03 1.426-0.668 2.765-1.914 4.018v0c-0.966 0.971-1.989 1.555-3.071 1.754-1.082 0.198-2.187-0.006-3.314-0.614v0l-2.739 8.619-2.445-2.432 2.726-8.177zM51.707 232.148l3.492 3.474c0.555 0.552 1.132 0.836 1.734 0.854 0.596 0.022 1.165-0.239 1.707-0.784v0l0.928-0.932c0.542-0.545 0.801-1.116 0.775-1.712-0.021-0.601-0.308-1.177-0.863-1.729v0l-3.493-3.474z" fill="#000000" data-fill-palette-color="primary"></path><path d="M67.721 258.774l-9.867-7.229 11.288-15.407 9.866 7.229-1.614 2.203-7.377-5.405-3.139 4.284 6.692 4.903-1.62 2.211-6.692-4.902-3.3 4.504 7.377 5.405z" fill="#000000" data-fill-palette-color="primary"></path><path d="M89.199 269.543l-2.846-1.217 2.96-6.92-1.484-13.223 3.246 1.389 0.932 9.652 0.074 0.032 7.597-6.004 3.116 1.333-10.615 7.992z" fill="#000000" data-fill-palette-color="primary"></path><path d="M106.907 275.752v0c-1.199-0.321-2.231-0.818-3.099-1.49-0.865-0.679-1.539-1.512-2.021-2.5-0.482-0.988-0.753-2.126-0.814-3.413-0.058-1.293 0.12-2.715 0.536-4.266v0c0.416-1.55 0.972-2.871 1.669-3.961 0.696-1.084 1.499-1.934 2.412-2.548 0.912-0.614 1.912-0.999 3.001-1.155 1.089-0.155 2.233-0.072 3.431 0.25v0c1.199 0.321 2.231 0.821 3.096 1.5 0.865 0.679 1.539 1.512 2.021 2.5 0.482 0.988 0.753 2.126 0.814 3.413 0.058 1.293-0.12 2.715-0.536 4.265v0c-0.416 1.55-0.972 2.871-1.67 3.962-0.696 1.084-1.499 1.934-2.411 2.548-0.912 0.614-1.912 0.999-3.001 1.154-1.087 0.148-2.23 0.062-3.428-0.259zM107.622 273.085v0c0.704 0.189 1.385 0.239 2.044 0.15 0.651-0.084 1.248-0.304 1.79-0.662 0.543-0.357 1.018-0.841 1.426-1.451 0.406-0.603 0.723-1.328 0.949-2.175v0l0.781-2.912c0.227-0.847 0.316-1.633 0.265-2.359-0.048-0.732-0.218-1.389-0.509-1.969-0.291-0.581-0.698-1.07-1.219-1.468-0.526-0.406-1.141-0.704-1.845-0.893v0c-0.723-0.194-1.408-0.245-2.054-0.152-0.644 0.086-1.238 0.307-1.78 0.664-0.543 0.357-1.018 0.841-1.426 1.451-0.406 0.603-0.723 1.328-0.949 2.175v0l-0.781 2.912c-0.227 0.847-0.316 1.633-0.266 2.358 0.048 0.732 0.218 1.389 0.509 1.97 0.291 0.581 0.694 1.069 1.21 1.466 0.513 0.403 1.132 0.701 1.855 0.895z" fill="#000000" data-fill-palette-color="primary"></path><path d="M123.873 259.521l3.02 0.304-1.178 11.706c-0.163 1.617 0.024 2.866 0.559 3.747 0.536 0.874 1.548 1.386 3.038 1.535v0c1.49 0.15 2.584-0.15 3.283-0.9 0.7-0.757 1.131-1.943 1.294-3.56v0l1.177-11.706 3.02 0.303-1.128 11.213c-0.141 1.402-0.39 2.597-0.747 3.585-0.358 0.994-0.851 1.792-1.481 2.393-0.63 0.608-1.412 1.031-2.344 1.269-0.925 0.232-2.042 0.283-3.35 0.151v0c-1.309-0.132-2.396-0.404-3.263-0.816-0.866-0.419-1.548-0.989-2.045-1.71-0.491-0.714-0.812-1.593-0.965-2.639-0.153-1.039-0.159-2.26-0.018-3.662v0z" fill="#000000" data-fill-palette-color="primary"></path><path d="M146.71 271.82l0.492 7.703-3.079 0.197-1.217-19.061 8.218-0.524c1.71-0.109 3.088 0.32 4.137 1.287 1.048 0.967 1.629 2.332 1.742 4.095v0c0.087 1.366-0.153 2.52-0.722 3.463-0.568 0.942-1.453 1.634-2.655 2.075v0l4.641 7.762-3.443 0.22-4.318-7.459zM146.545 269.226l4.917-0.314c0.781-0.05 1.377-0.294 1.788-0.732 0.412-0.432 0.593-1.031 0.544-1.799v0l-0.084-1.312c-0.049-0.767-0.305-1.339-0.768-1.715-0.464-0.383-1.086-0.549-1.867-0.499v0l-4.917 0.313z" fill="#000000" data-fill-palette-color="primary"></path><path d="M169.338 256.972l8.976-2.574 3.832 13.361c0.231 0.804 0.307 1.571 0.229 2.302-0.08 0.725-0.294 1.386-0.642 1.984-0.346 0.604-0.829 1.132-1.45 1.584-0.621 0.452-1.353 0.799-2.196 1.04v0c-1.595 0.457-2.974 0.393-4.138-0.191-1.164-0.585-2.066-1.526-2.705-2.824v0l2.56-1.387c0.389 0.744 0.872 1.279 1.45 1.605 0.577 0.326 1.268 0.373 2.072 0.143v0c0.791-0.227 1.353-0.651 1.687-1.274 0.332-0.628 0.355-1.442 0.068-2.44v0l-3.034-10.58-6 1.721z" fill="#000000" data-fill-palette-color="primary"></path><path d="M197.721 267.075v0c-1.128 0.517-2.24 0.794-3.337 0.83-1.099 0.029-2.15-0.182-3.152-0.636-1.002-0.453-1.936-1.156-2.804-2.108-0.87-0.959-1.64-2.167-2.309-3.627v0c-0.669-1.459-1.083-2.831-1.242-4.115-0.156-1.279-0.079-2.446 0.23-3.501 0.31-1.055 0.835-1.989 1.575-2.803 0.74-0.814 1.673-1.48 2.801-1.998v0c1.128-0.517 2.242-0.791 3.341-0.82 1.099-0.029 2.15 0.182 3.152 0.635 1.002 0.453 1.936 1.156 2.803 2.109 0.87 0.959 1.64 2.167 2.31 3.626v0c0.669 1.459 1.083 2.831 1.242 4.116 0.156 1.279 0.079 2.446-0.231 3.5-0.31 1.055-0.835 1.989-1.574 2.804-0.742 0.808-1.677 1.471-2.805 1.988zM196.569 264.565v0c0.662-0.304 1.219-0.7 1.67-1.189 0.448-0.48 0.766-1.03 0.956-1.652 0.19-0.621 0.247-1.297 0.172-2.027-0.072-0.724-0.291-1.484-0.657-2.28v0l-1.257-2.741c-0.366-0.797-0.799-1.459-1.3-1.985-0.504-0.533-1.054-0.93-1.649-1.192-0.595-0.261-1.22-0.379-1.875-0.352-0.665 0.023-1.328 0.186-1.99 0.49v0c-0.68 0.312-1.24 0.71-1.679 1.193-0.442 0.477-0.757 1.026-0.947 1.647-0.19 0.621-0.247 1.297-0.172 2.027 0.072 0.724 0.291 1.484 0.657 2.281v0l1.256 2.74c0.366 0.797 0.799 1.459 1.301 1.986 0.504 0.533 1.054 0.93 1.648 1.191 0.595 0.261 1.217 0.38 1.867 0.357 0.652-0.017 1.319-0.182 1.999-0.494z" fill="#000000" data-fill-palette-color="primary"></path><path d="M200.433 243.751l2.519-1.692 6.559 9.767c0.906 1.349 1.846 2.193 2.82 2.53 0.97 0.332 2.077 0.08 3.32-0.755v0c1.243-0.835 1.895-1.764 1.954-2.787 0.056-1.029-0.368-2.218-1.274-3.568v0l-6.559-9.767 2.519-1.692 6.283 9.356c0.786 1.17 1.356 2.249 1.711 3.238 0.359 0.994 0.487 1.923 0.385 2.787-0.098 0.87-0.43 1.694-0.996 2.473-0.564 0.769-1.392 1.52-2.484 2.253v0c-1.092 0.733-2.103 1.217-3.033 1.452-0.934 0.229-1.823 0.225-2.666-0.013-0.833-0.237-1.642-0.709-2.426-1.418-0.78-0.703-1.564-1.639-2.35-2.809v0z" fill="#000000" data-fill-palette-color="primary"></path><path d="M225.865 238.657l5.293 5.617-2.245 2.116-13.099-13.9 5.993-5.648c1.247-1.175 2.582-1.724 4.007-1.648 1.424 0.076 2.742 0.757 3.954 2.042v0c0.939 0.996 1.49 2.039 1.653 3.127 0.163 1.088-0.077 2.185-0.72 3.292v0l8.527 3.016-2.511 2.365-8.084-2.988zM224.082 236.764l3.585-3.378c0.569-0.537 0.873-1.105 0.91-1.705 0.042-0.595-0.201-1.172-0.729-1.732v0l-0.902-0.957c-0.527-0.56-1.089-0.836-1.685-0.83-0.601 0.001-1.186 0.27-1.756 0.806v0l-3.586 3.379z" fill="#000000" data-fill-palette-color="primary"></path><path d="M250.621 222.146l-12.178-1.478-4.492-0.794-0.049 0.065 11.589 8.892-1.798 2.344-15.153-11.627 2.094-2.729 12.179 1.477 4.491 0.794 0.056-0.072-11.59-8.892 1.798-2.344 15.153 11.627z" fill="#000000" data-fill-palette-color="primary"></path><path d="M262.536 201.68l-5.802 10.767-16.814-9.06 5.802-10.767 2.404 1.296-4.338 8.051 4.676 2.519 3.935-7.302 2.413 1.3-3.935 7.303 4.916 2.649 4.338-8.051z" fill="#000000" data-fill-palette-color="primary"></path><path d="M267.571 187.962l-1.021 2.922-7.105-2.483-13.091 2.38 1.165-3.333 9.566-1.586 0.027-0.077-6.506-7.171 1.118-3.199 8.695 10.047z" fill="#000000" data-fill-palette-color="primary"></path><path d="M1.947 144.648c0-6.072 4.922-10.994 10.994-10.994 6.072 0 10.994 4.922 10.994 10.994 0 6.072-4.922 10.994-10.994 10.995-6.072 0-10.994-4.922-10.994-10.995z" fill="#000000" data-fill-palette-color="primary"></path><path d="M256.626 144.648c0-6.072 4.922-10.994 10.995-10.994 6.072 0 10.994 4.922 10.994 10.994 0 6.072-4.922 10.994-10.994 10.995-6.072 0-10.994-4.922-10.995-10.995z" fill="#000000" data-fill-palette-color="primary"></path></g></svg></g></svg></g></svg></g></svg></g><defs></defs></svg><rect width="279.72" height="279.72" fill="none" stroke="none" visibility="hidden"></rect></g></svg></g></svg>